{
  "source": "C:\\Users\\Peter\\Desktop\\stuff\\MIUN\\quantitative_research\\video_compression\\videos\\BVI-HD\\RockWater_1920x1080_30fps.mp4",
  "output": "C:\\Users\\Peter\\Desktop\\stuff\\MIUN\\quantitative_research\\video_compression\\compressed_videos\\BVI-HD\\vp9\\2.5\\RockWater_1920x1080_30fps_vp9.webm",
  "codec": "vp9",
  "ok": "Input #0, mov,mp4,m4a,3gp,3g2,mj2, from 'C:\\Users\\Peter\\Desktop\\stuff\\MIUN\\quantitative_research\\video_compression\\videos\\BVI-HD\\RockWater_1920x1080_30fps.mp4':\n  Metadata:\n    major_brand     : isom\n    minor_version   : 512\n    compatible_brands: isomiso2avc1mp41\n    encoder         : Lavf54.28.101\n  Duration: 00:00:05.00, start: 0.000000, bitrate: 245943 kb/s\n  Stream #0:0[0x1](und): Video: h264 (High 4:4:4 Predictive) (avc1 / 0x31637661), yuv420p(progressive), 1920x1080, 245940 kb/s, 30 fps, 30 tbr, 30 tbn (default)\n    Metadata:\n      handler_name    : VideoHandler\n      vendor_id       : [0][0][0][0]\n[out#0/webm @ 000002440c9d0b00] Codec AVOption b:a (set bitrate (in bits/s)) has not been used for any stream. The most likely reason is either wrong type (e.g. a video option with no video streams) or that it is a private option of some decoder which was not actually used for any stream.\nStream mapping:\n  Stream #0:0 -> #0:0 (h264 (native) -> vp9 (libvpx-vp9))\nPress [q] to stop, [?] for help\n[libvpx-vp9 @ 000002440d334600] v1.15.2-100-g40561f514\nOutput #0, webm, to 'C:\\Users\\Peter\\Desktop\\stuff\\MIUN\\quantitative_research\\video_compression\\compressed_videos\\BVI-HD\\vp9\\2.5\\RockWater_1920x1080_30fps_vp9.webm':\n  Metadata:\n    major_brand     : isom\n    minor_version   : 512\n    compatible_brands: isomiso2avc1mp41\n    encoder         : Lavf62.3.100\n  Stream #0:0(und): Video: vp9, yuv420p(tv, progressive), 1920x1080, q=2-31, 2500 kb/s, 30 fps, 1k tbn (default)\n    Metadata:\n      encoder         : Lavc62.11.100 libvpx-vp9\n      handler_name    : VideoHandler\n      vendor_id       : [0][0][0][0]\n    Side data:\n      cpb: bitrate max/min/avg: 0/0/0 buffer size: 2500000 vbv_delay: N/A\nframe=    0 fps=0.0 q=0.0 size=       0KiB time=N/A bitrate=N/A speed=N/A elapsed=0:00:00.51    \nframe=    5 fps=4.9 q=62.0 size=       1KiB time=00:00:00.16 bitrate=  30.4kbits/s speed=0.162x elapsed=0:00:01.03    \nframe=   10 fps=6.4 q=58.0 size=       1KiB time=00:00:00.33 bitrate=  15.2kbits/s speed=0.214x elapsed=0:00:01.55    \nframe=   15 fps=7.2 q=60.0 size=       1KiB time=00:00:00.50 bitrate=  10.1kbits/s speed=0.241x elapsed=0:00:02.07    \nframe=   20 fps=7.8 q=57.0 size=       1KiB time=00:00:00.66 bitrate=   7.6kbits/s speed=0.258x elapsed=0:00:02.57    \nframe=   25 fps=8.1 q=62.0 size=       1KiB time=00:00:00.83 bitrate=   6.1kbits/s speed=0.269x elapsed=0:00:03.10    \nframe=   30 fps=8.3 q=58.0 size=       1KiB time=00:00:01.00 bitrate=   5.1kbits/s speed=0.277x elapsed=0:00:03.60    \nframe=   35 fps=8.5 q=57.0 size=       1KiB time=00:00:01.16 bitrate=   4.3kbits/s speed=0.283x elapsed=0:00:04.12    \nframe=   40 fps=8.6 q=57.0 size=       1KiB time=00:00:01.33 bitrate=   3.8kbits/s speed=0.287x elapsed=0:00:04.65    \nframe=   44 fps=8.5 q=56.0 size=       1KiB time=00:00:01.46 bitrate=   3.5kbits/s speed=0.283x elapsed=0:00:05.17    \nframe=   48 fps=8.4 q=56.0 size=       1KiB time=00:00:01.60 bitrate=   3.2kbits/s speed=0.281x elapsed=0:00:05.69    \nframe=   52 fps=8.4 q=55.0 size=       1KiB time=00:00:01.73 bitrate=   2.9kbits/s speed=0.279x elapsed=0:00:06.20    \nframe=   57 fps=8.5 q=59.0 size=       1KiB time=00:00:01.90 bitrate=   2.7kbits/s speed=0.283x elapsed=0:00:06.71    \nframe=   62 fps=8.6 q=59.0 size=       1KiB time=00:00:02.06 bitrate=   2.5kbits/s speed=0.286x elapsed=0:00:07.23    \nframe=   67 fps=8.6 q=54.0 size=       1KiB time=00:00:02.23 bitrate=   2.3kbits/s speed=0.288x elapsed=0:00:07.75    \nframe=   71 fps=8.6 q=53.0 size=       1KiB time=00:00:02.36 bitrate=   2.1kbits/s speed=0.286x elapsed=0:00:08.26    \nframe=   75 fps=8.5 q=53.0 size=       1KiB time=00:00:02.50 bitrate=   2.0kbits/s speed=0.285x elapsed=0:00:08.78    \nframe=   79 fps=8.5 q=41.0 size=       1KiB time=00:00:02.63 bitrate=   1.9kbits/s speed=0.283x elapsed=0:00:09.31    \nframe=   84 fps=8.5 q=54.0 size=       1KiB time=00:00:02.80 bitrate=   1.8kbits/s speed=0.284x elapsed=0:00:09.84    \nframe=   89 fps=8.6 q=58.0 size=       1KiB time=00:00:02.96 bitrate=   1.7kbits/s speed=0.286x elapsed=0:00:10.37    \nframe=   94 fps=8.6 q=58.0 size=       1KiB time=00:00:03.13 bitrate=   1.6kbits/s speed=0.288x elapsed=0:00:10.89    \nframe=   97 fps=8.5 q=54.0 size=       1KiB time=00:00:03.23 bitrate=   1.6kbits/s speed=0.283x elapsed=0:00:11.40    \nframe=  102 fps=8.6 q=56.0 size=       1KiB time=00:00:03.40 bitrate=   1.5kbits/s speed=0.285x elapsed=0:00:11.92    \nframe=  105 fps=8.4 q=42.0 size=       1KiB time=00:00:03.50 bitrate=   1.4kbits/s speed=0.281x elapsed=0:00:12.44    \nframe=  109 fps=8.4 q=57.0 size=       1KiB time=00:00:03.63 bitrate=   1.4kbits/s speed=0.28x elapsed=0:00:12.95    \nframe=  114 fps=8.5 q=57.0 size=       1KiB time=00:00:03.80 bitrate=   1.3kbits/s speed=0.282x elapsed=0:00:13.47    \nframe=  117 fps=8.4 q=42.0 size=       1KiB time=00:00:03.90 bitrate=   1.3kbits/s speed=0.279x elapsed=0:00:13.98    \nframe=  122 fps=8.4 q=57.0 size=       1KiB time=00:00:04.06 bitrate=   1.2kbits/s speed=0.28x elapsed=0:00:14.51    \nframe=  126 fps=8.4 q=58.0 size=       1KiB time=00:00:04.20 bitrate=   1.2kbits/s speed=0.28x elapsed=0:00:15.01    \nframe=  126 fps=8.1 q=58.0 size=       1KiB time=00:00:04.20 bitrate=   1.2kbits/s speed=0.27x elapsed=0:00:15.55    \nframe=  126 fps=7.8 q=58.0 size=       1KiB time=00:00:04.20 bitrate=   1.2kbits/s speed=0.261x elapsed=0:00:16.06    \nframe=  126 fps=7.6 q=58.0 size=       1KiB time=00:00:04.20 bitrate=   1.2kbits/s speed=0.253x elapsed=0:00:16.58    \nframe=  126 fps=7.4 q=58.0 size=       1KiB time=00:00:04.20 bitrate=   1.2kbits/s speed=0.246x elapsed=0:00:17.09    \nframe=  126 fps=7.2 q=58.0 size=       1KiB time=00:00:04.20 bitrate=   1.2kbits/s speed=0.239x elapsed=0:00:17.60    \n[out#0/webm @ 000002440c9d0b00] video:1582KiB audio:0KiB subtitle:0KiB other streams:0KiB global headers:0KiB muxing overhead: 0.108997%\nframe=  150 fps=8.4 q=56.0 Lsize=    1584KiB time=00:00:05.00 bitrate=2595.2kbits/s speed=0.28x elapsed=0:00:17.83    \n",
  "seconds": 18.007749795913696,
  "probe_out": {}
}